<mxfile host="Electron" modified="2024-02-21T13:51:23.636Z" agent="Mozilla/5.0 (Macintosh; Intel Mac OS X 10_15_7) AppleWebKit/537.36 (KHTML, like Gecko) draw.io/23.1.5 Chrome/120.0.6099.109 Electron/28.1.0 Safari/537.36" etag="YVw_QQKE8GSwNDvABXXJ" version="23.1.5" type="device">
  <diagram name="Page-1" id="TrVGcGaDL3QyNtiAeDpV">
    <mxGraphModel dx="1242" dy="793" grid="1" gridSize="10" guides="1" tooltips="1" connect="1" arrows="1" fold="1" page="1" pageScale="1" pageWidth="827" pageHeight="1169" math="0" shadow="0">
      <root>
        <mxCell id="0" />
        <mxCell id="1" parent="0" />
        <mxCell id="TbX-WALGLKv1bCYIb4RI-55" value="Auth Domain" style="rounded=1;whiteSpace=wrap;html=1;fillColor=none;dashed=1;verticalAlign=top;dashPattern=8 8;" vertex="1" parent="1">
          <mxGeometry x="4" y="470" width="400" height="120" as="geometry" />
        </mxCell>
        <mxCell id="TbX-WALGLKv1bCYIb4RI-57" value="Task Domain" style="rounded=1;whiteSpace=wrap;html=1;fillColor=none;dashed=1;verticalAlign=top;dashPattern=8 8;" vertex="1" parent="1">
          <mxGeometry x="4" y="610" width="400" height="400" as="geometry" />
        </mxCell>
        <mxCell id="TbX-WALGLKv1bCYIb4RI-56" value="Account Domain" style="rounded=1;whiteSpace=wrap;html=1;fillColor=none;dashed=1;verticalAlign=top;dashPattern=8 8;" vertex="1" parent="1">
          <mxGeometry x="424" y="470" width="400" height="120" as="geometry" />
        </mxCell>
        <mxCell id="TbX-WALGLKv1bCYIb4RI-5" value="" style="edgeStyle=orthogonalEdgeStyle;rounded=0;orthogonalLoop=1;jettySize=auto;html=1;" edge="1" parent="1" source="TbX-WALGLKv1bCYIb4RI-2" target="TbX-WALGLKv1bCYIb4RI-4">
          <mxGeometry relative="1" as="geometry" />
        </mxCell>
        <mxCell id="TbX-WALGLKv1bCYIb4RI-12" value="" style="edgeStyle=orthogonalEdgeStyle;rounded=0;orthogonalLoop=1;jettySize=auto;html=1;" edge="1" parent="1" source="TbX-WALGLKv1bCYIb4RI-2" target="TbX-WALGLKv1bCYIb4RI-11">
          <mxGeometry relative="1" as="geometry" />
        </mxCell>
        <mxCell id="TbX-WALGLKv1bCYIb4RI-2" value="Задача" style="rounded=1;whiteSpace=wrap;html=1;" vertex="1" parent="1">
          <mxGeometry x="244" y="200" width="120" height="60" as="geometry" />
        </mxCell>
        <mxCell id="TbX-WALGLKv1bCYIb4RI-4" value="Стоимость" style="whiteSpace=wrap;html=1;rounded=1;" vertex="1" parent="1">
          <mxGeometry x="244" y="340" width="120" height="60" as="geometry" />
        </mxCell>
        <mxCell id="TbX-WALGLKv1bCYIb4RI-6" value="Лицевой счет" style="whiteSpace=wrap;html=1;rounded=1;" vertex="1" parent="1">
          <mxGeometry x="444" y="60" width="120" height="60" as="geometry" />
        </mxCell>
        <mxCell id="TbX-WALGLKv1bCYIb4RI-14" value="" style="edgeStyle=orthogonalEdgeStyle;rounded=0;orthogonalLoop=1;jettySize=auto;html=1;" edge="1" parent="1" source="TbX-WALGLKv1bCYIb4RI-10" target="TbX-WALGLKv1bCYIb4RI-13">
          <mxGeometry relative="1" as="geometry" />
        </mxCell>
        <mxCell id="TbX-WALGLKv1bCYIb4RI-15" style="edgeStyle=orthogonalEdgeStyle;rounded=0;orthogonalLoop=1;jettySize=auto;html=1;exitX=0.5;exitY=1;exitDx=0;exitDy=0;" edge="1" parent="1" source="TbX-WALGLKv1bCYIb4RI-10" target="TbX-WALGLKv1bCYIb4RI-2">
          <mxGeometry relative="1" as="geometry" />
        </mxCell>
        <mxCell id="TbX-WALGLKv1bCYIb4RI-16" value="" style="edgeStyle=orthogonalEdgeStyle;rounded=0;orthogonalLoop=1;jettySize=auto;html=1;" edge="1" parent="1" source="TbX-WALGLKv1bCYIb4RI-10" target="TbX-WALGLKv1bCYIb4RI-6">
          <mxGeometry relative="1" as="geometry" />
        </mxCell>
        <mxCell id="TbX-WALGLKv1bCYIb4RI-10" value="Сотрудник" style="rounded=1;whiteSpace=wrap;html=1;" vertex="1" parent="1">
          <mxGeometry x="244" y="60" width="120" height="60" as="geometry" />
        </mxCell>
        <mxCell id="TbX-WALGLKv1bCYIb4RI-11" value="Статус" style="whiteSpace=wrap;html=1;rounded=1;" vertex="1" parent="1">
          <mxGeometry x="44" y="200" width="120" height="60" as="geometry" />
        </mxCell>
        <mxCell id="TbX-WALGLKv1bCYIb4RI-13" value="Роль" style="whiteSpace=wrap;html=1;rounded=1;" vertex="1" parent="1">
          <mxGeometry x="44" y="60" width="120" height="60" as="geometry" />
        </mxCell>
        <mxCell id="TbX-WALGLKv1bCYIb4RI-41" style="edgeStyle=orthogonalEdgeStyle;rounded=0;orthogonalLoop=1;jettySize=auto;html=1;exitX=0;exitY=0.5;exitDx=0;exitDy=0;entryX=1;entryY=0.5;entryDx=0;entryDy=0;" edge="1" parent="1" source="TbX-WALGLKv1bCYIb4RI-39" target="TbX-WALGLKv1bCYIb4RI-40">
          <mxGeometry relative="1" as="geometry" />
        </mxCell>
        <mxCell id="TbX-WALGLKv1bCYIb4RI-59" style="edgeStyle=orthogonalEdgeStyle;rounded=0;orthogonalLoop=1;jettySize=auto;html=1;exitX=1;exitY=0.5;exitDx=0;exitDy=0;entryX=0;entryY=0.5;entryDx=0;entryDy=0;dashed=1;" edge="1" parent="1" source="TbX-WALGLKv1bCYIb4RI-39" target="TbX-WALGLKv1bCYIb4RI-44">
          <mxGeometry relative="1" as="geometry" />
        </mxCell>
        <mxCell id="TbX-WALGLKv1bCYIb4RI-60" style="edgeStyle=orthogonalEdgeStyle;rounded=0;orthogonalLoop=1;jettySize=auto;html=1;exitX=0.5;exitY=1;exitDx=0;exitDy=0;entryX=0.5;entryY=0;entryDx=0;entryDy=0;dashed=1;" edge="1" parent="1" source="TbX-WALGLKv1bCYIb4RI-39" target="TbX-WALGLKv1bCYIb4RI-53">
          <mxGeometry relative="1" as="geometry" />
        </mxCell>
        <mxCell id="TbX-WALGLKv1bCYIb4RI-39" value="Сотрудник" style="rounded=1;whiteSpace=wrap;html=1;" vertex="1" parent="1">
          <mxGeometry x="244" y="510" width="120" height="60" as="geometry" />
        </mxCell>
        <mxCell id="TbX-WALGLKv1bCYIb4RI-40" value="Роль" style="whiteSpace=wrap;html=1;rounded=1;" vertex="1" parent="1">
          <mxGeometry x="44" y="510" width="120" height="60" as="geometry" />
        </mxCell>
        <mxCell id="TbX-WALGLKv1bCYIb4RI-42" value="Лицевой счет" style="whiteSpace=wrap;html=1;rounded=1;" vertex="1" parent="1">
          <mxGeometry x="664" y="510" width="120" height="60" as="geometry" />
        </mxCell>
        <mxCell id="TbX-WALGLKv1bCYIb4RI-43" value="" style="edgeStyle=orthogonalEdgeStyle;rounded=0;orthogonalLoop=1;jettySize=auto;html=1;" edge="1" parent="1" source="TbX-WALGLKv1bCYIb4RI-44" target="TbX-WALGLKv1bCYIb4RI-42">
          <mxGeometry relative="1" as="geometry" />
        </mxCell>
        <mxCell id="TbX-WALGLKv1bCYIb4RI-44" value="Сотрудник" style="rounded=1;whiteSpace=wrap;html=1;dashed=1;" vertex="1" parent="1">
          <mxGeometry x="464" y="510" width="120" height="60" as="geometry" />
        </mxCell>
        <mxCell id="TbX-WALGLKv1bCYIb4RI-48" value="" style="edgeStyle=orthogonalEdgeStyle;rounded=0;orthogonalLoop=1;jettySize=auto;html=1;" edge="1" parent="1" source="TbX-WALGLKv1bCYIb4RI-50" target="TbX-WALGLKv1bCYIb4RI-51">
          <mxGeometry relative="1" as="geometry" />
        </mxCell>
        <mxCell id="TbX-WALGLKv1bCYIb4RI-49" value="" style="edgeStyle=orthogonalEdgeStyle;rounded=0;orthogonalLoop=1;jettySize=auto;html=1;" edge="1" parent="1" source="TbX-WALGLKv1bCYIb4RI-50" target="TbX-WALGLKv1bCYIb4RI-54">
          <mxGeometry relative="1" as="geometry" />
        </mxCell>
        <mxCell id="TbX-WALGLKv1bCYIb4RI-50" value="Задача" style="rounded=1;whiteSpace=wrap;html=1;" vertex="1" parent="1">
          <mxGeometry x="244" y="790" width="120" height="60" as="geometry" />
        </mxCell>
        <mxCell id="TbX-WALGLKv1bCYIb4RI-51" value="Стоимость" style="whiteSpace=wrap;html=1;rounded=1;" vertex="1" parent="1">
          <mxGeometry x="244" y="930" width="120" height="60" as="geometry" />
        </mxCell>
        <mxCell id="TbX-WALGLKv1bCYIb4RI-52" style="edgeStyle=orthogonalEdgeStyle;rounded=0;orthogonalLoop=1;jettySize=auto;html=1;exitX=0.5;exitY=1;exitDx=0;exitDy=0;" edge="1" parent="1" source="TbX-WALGLKv1bCYIb4RI-53" target="TbX-WALGLKv1bCYIb4RI-50">
          <mxGeometry relative="1" as="geometry" />
        </mxCell>
        <mxCell id="TbX-WALGLKv1bCYIb4RI-53" value="Сотрудник" style="rounded=1;whiteSpace=wrap;html=1;dashed=1;" vertex="1" parent="1">
          <mxGeometry x="244" y="650" width="120" height="60" as="geometry" />
        </mxCell>
        <mxCell id="TbX-WALGLKv1bCYIb4RI-54" value="Статус" style="whiteSpace=wrap;html=1;rounded=1;" vertex="1" parent="1">
          <mxGeometry x="44" y="790" width="120" height="60" as="geometry" />
        </mxCell>
      </root>
    </mxGraphModel>
  </diagram>
</mxfile>
